<svg width="60" height="72" viewBox="0 0 60 72" fill="none" xmlns="http://www.w3.org/2000/svg">
<path d="M57 12H47.7C46.2646 5.02073 40.1252 0.009 32.9999 0H26.9999C19.8745 0.009 13.7351 5.02073 12.2999 12H2.99995C1.34311 12 0 13.3431 0 14.9999C0 16.6567 1.34311 18 2.99995 18H5.99991V57C6.00989 65.2801 12.7198 71.9902 21 72H39C47.2801 71.9902 53.99 65.2801 54 57V18H57C58.6568 18 59.9999 16.6569 59.9999 15C59.9999 13.3432 58.6568 12 57 12ZM27 51C27 52.6569 25.6569 54 24 54C22.3431 54 21 52.6569 21 51V33C21 31.3432 22.3431 30.0001 23.9999 30.0001C25.6567 30.0001 26.9999 31.3432 26.9999 33V51H27ZM39 51C39 52.6569 37.6568 54 36 54C34.3432 54 33 52.6569 33 51V33C33 31.3432 34.3432 30.0001 36 30.0001C37.6568 30.0001 39 31.3432 39 33V51ZM18.513 12C19.789 8.40684 23.1871 6.00455 27 5.99991H33C36.813 6.00455 40.211 8.40684 41.487 12H18.513Z" fill="#004896"/>
</svg>
