<svg width="17" height="25" viewBox="0 0 19 25" fill="none" xmlns="http://www.w3.org/2000/svg">
<path d="M18.875 6.50312C18.8764 5.95561 18.7693 5.41324 18.5597 4.90741C18.3502 4.40158 18.0424 3.94233 17.6542 3.55625L15.3188 1.22083C14.5361 0.441499 13.4774 0.00273693 12.3729 0L3.25 0C2.4212 0 1.62634 0.32924 1.04029 0.915291C0.45424 1.50134 0.125 2.2962 0.125 3.125V25H18.875V6.50312ZM16.1813 5.02917C16.2336 5.08601 16.2827 5.14583 16.3281 5.20833H13.6667V2.54687C13.7292 2.59234 13.789 2.64138 13.8458 2.69375L16.1813 5.02917ZM2.20833 22.9167V3.125C2.20833 2.84873 2.31808 2.58378 2.51343 2.38843C2.70878 2.19308 2.97373 2.08333 3.25 2.08333H11.5833V7.29167H16.7917V22.9167H2.20833ZM5.33333 9.375H13.6667V11.4583H5.33333V9.375ZM5.33333 13.5417H13.6667V15.625H5.33333V13.5417ZM11.6021 17.5146L13.649 17.8958C13.45 18.9865 12.6021 20.8333 10.6823 20.8333C9.92878 20.8327 9.19839 20.573 8.61354 20.0979C8.28646 19.8656 8.17188 19.7917 7.92396 19.7917C7.55105 19.9331 7.22196 20.1702 6.96979 20.4792L5.40729 19.1073C6.03737 18.3374 6.93751 17.8371 7.92396 17.7083C8.61648 17.7166 9.28553 17.9606 9.82083 18.4C10.0543 18.62 10.3615 18.7448 10.6823 18.75C11.3313 18.75 11.599 17.5281 11.6021 17.5146Z" fill="black"/>
</svg>
