<svg width="77" height="71" viewBox="0 0 77 71" fill="none" xmlns="http://www.w3.org/2000/svg">
<path d="M74.6478 26.9518C71.7525 22.2107 68.1004 17.9758 63.8365 14.4151L72.8164 5.43517C74.0469 4.16108 74.0116 2.13081 72.7375 0.900318C71.4947 -0.300106 69.5242 -0.300106 68.2814 0.900318L58.5157 10.6789C52.4618 7.08314 45.5409 5.20892 38.4999 5.25883C18.6445 5.25883 7.32965 18.8508 2.35221 26.952C-0.784071 32.0247 -0.784071 38.4344 2.35221 43.5073C5.24751 48.2484 8.8996 52.4834 13.1635 56.0441L4.18359 65.024C2.90951 66.2545 2.87418 68.2849 4.10467 69.5589C5.33516 70.8329 7.36558 70.8683 8.63952 69.6378C8.66628 69.6119 8.69259 69.5856 8.71844 69.5589L18.5066 59.7707C24.5529 63.366 31.4656 65.2432 38.4999 65.2003C58.3554 65.2003 69.6702 51.6084 74.6476 43.5072C77.7841 38.4344 77.7841 32.0247 74.6478 26.9518ZM19.2572 35.2296C19.239 24.6197 27.8251 16.004 38.435 15.9858C42.4494 15.9789 46.3652 17.2298 49.6321 19.5627L44.9753 24.2195C43.0203 23.0406 40.7829 22.4122 38.5001 22.4011C31.4151 22.4011 25.6716 28.1446 25.6716 35.2296C25.6827 37.5124 26.3111 39.7499 27.49 41.7048L22.8332 46.3616C20.5079 43.1154 19.2574 39.2226 19.2572 35.2296ZM38.5001 54.4725C34.507 54.4723 30.6143 53.2218 27.3681 50.8964L32.0249 46.2397C33.9798 47.4186 36.2172 48.047 38.5001 48.0581C45.5851 48.0581 51.3286 42.3146 51.3286 35.2296C51.3175 32.9468 50.6891 30.7093 49.5102 28.7544L54.1669 24.0976C60.3326 32.7319 58.3315 44.7299 49.6972 50.8955C46.4302 53.2284 42.5145 54.4794 38.5001 54.4725Z" fill="#004896"/>
</svg>
